<mxfile host="app.diagrams.net" agent="Mozilla/5.0 (Windows NT 10.0; Win64; x64) AppleWebKit/537.36 (KHTML, like Gecko) Chrome/129.0.0.0 Safari/537.36 Edg/129.0.0.0" version="24.7.16">
  <diagram id="Ht1M8jgEwFfnCIfOTk4-" name="Page-1">
    <mxGraphModel dx="1805" dy="1205" grid="1" gridSize="10" guides="1" tooltips="1" connect="1" arrows="1" fold="1" page="1" pageScale="1" pageWidth="827" pageHeight="1169" math="0" shadow="0">
      <root>
        <mxCell id="0" />
        <mxCell id="1" parent="0" />
        <mxCell id="UEzPUAAOIrF-is8g5C7q-2" value="AWS Cloud" style="points=[[0,0],[0.25,0],[0.5,0],[0.75,0],[1,0],[1,0.25],[1,0.5],[1,0.75],[1,1],[0.75,1],[0.5,1],[0.25,1],[0,1],[0,0.75],[0,0.5],[0,0.25]];outlineConnect=0;gradientColor=none;html=1;whiteSpace=wrap;fontSize=12;fontStyle=0;shape=mxgraph.aws4.group;grIcon=mxgraph.aws4.group_aws_cloud_alt;strokeColor=#232F3E;fillColor=none;verticalAlign=top;align=left;spacingLeft=30;fontColor=#232F3E;dashed=0;container=1;pointerEvents=0;collapsible=0;recursiveResize=0;" parent="1" vertex="1">
          <mxGeometry x="435.5" y="175" width="718.5" height="846" as="geometry" />
        </mxCell>
        <mxCell id="ME_5Kme3eVwSuaZXo6tZ-10" value="leeandson.com" style="shape=image;verticalLabelPosition=bottom;labelBackgroundColor=default;verticalAlign=top;aspect=fixed;imageAspect=0;image=https://cdn.sanity.io/images/34ent8ly/production/b6da5379df1e6ddb31c34f3e5690575800680e07-824x824.png;" vertex="1" parent="UEzPUAAOIrF-is8g5C7q-2">
          <mxGeometry x="54.5" y="35" width="195" height="195" as="geometry" />
        </mxCell>
        <mxCell id="UEzPUAAOIrF-is8g5C7q-18" value="airdeskr.com" style="outlineConnect=0;fontColor=#232F3E;gradientColor=#F78E04;gradientDirection=north;fillColor=#D05C17;strokeColor=#ffffff;dashed=0;verticalLabelPosition=bottom;verticalAlign=top;align=center;html=1;fontSize=12;fontStyle=0;aspect=fixed;shape=mxgraph.aws4.resourceIcon;resIcon=mxgraph.aws4.ecr;" parent="UEzPUAAOIrF-is8g5C7q-2" vertex="1">
          <mxGeometry x="391.5" y="35" width="188" height="188" as="geometry" />
        </mxCell>
        <mxCell id="UEzPUAAOIrF-is8g5C7q-20" value="4" style="rounded=1;whiteSpace=wrap;html=1;fillColor=#007CBD;strokeColor=none;fontColor=#FFFFFF;fontStyle=1;fontSize=22;" parent="UEzPUAAOIrF-is8g5C7q-2" vertex="1">
          <mxGeometry x="4.5" y="35" width="40" height="38" as="geometry" />
        </mxCell>
        <mxCell id="UEzPUAAOIrF-is8g5C7q-21" value="5" style="rounded=1;whiteSpace=wrap;html=1;fillColor=#007CBD;strokeColor=none;fontColor=#FFFFFF;fontStyle=1;fontSize=22;" parent="UEzPUAAOIrF-is8g5C7q-2" vertex="1">
          <mxGeometry x="314.5" y="5" width="40" height="38" as="geometry" />
        </mxCell>
        <mxCell id="ME_5Kme3eVwSuaZXo6tZ-22" style="edgeStyle=orthogonalEdgeStyle;rounded=0;orthogonalLoop=1;jettySize=auto;html=1;exitX=1;exitY=0.5;exitDx=0;exitDy=0;" edge="1" parent="UEzPUAAOIrF-is8g5C7q-2" source="ME_5Kme3eVwSuaZXo6tZ-18" target="UEzPUAAOIrF-is8g5C7q-18">
          <mxGeometry relative="1" as="geometry">
            <mxPoint x="484.5" y="215" as="targetPoint" />
            <Array as="points">
              <mxPoint x="485" y="405" />
            </Array>
          </mxGeometry>
        </mxCell>
        <mxCell id="ME_5Kme3eVwSuaZXo6tZ-30" style="edgeStyle=orthogonalEdgeStyle;rounded=0;orthogonalLoop=1;jettySize=auto;html=1;exitX=0.5;exitY=1;exitDx=0;exitDy=0;entryX=0.5;entryY=0;entryDx=0;entryDy=0;" edge="1" parent="UEzPUAAOIrF-is8g5C7q-2" source="ME_5Kme3eVwSuaZXo6tZ-18" target="ME_5Kme3eVwSuaZXo6tZ-29">
          <mxGeometry relative="1" as="geometry" />
        </mxCell>
        <mxCell id="ME_5Kme3eVwSuaZXo6tZ-18" value="Apache (port 80)" style="rounded=1;whiteSpace=wrap;html=1;" vertex="1" parent="UEzPUAAOIrF-is8g5C7q-2">
          <mxGeometry x="334.5" y="375" width="120" height="60" as="geometry" />
        </mxCell>
        <mxCell id="ME_5Kme3eVwSuaZXo6tZ-23" style="edgeStyle=orthogonalEdgeStyle;rounded=0;orthogonalLoop=1;jettySize=auto;html=1;exitX=0.5;exitY=0;exitDx=0;exitDy=0;entryX=0.5;entryY=1;entryDx=0;entryDy=0;" edge="1" parent="UEzPUAAOIrF-is8g5C7q-2" source="ME_5Kme3eVwSuaZXo6tZ-19" target="ME_5Kme3eVwSuaZXo6tZ-20">
          <mxGeometry relative="1" as="geometry">
            <mxPoint x="314.5" y="275" as="targetPoint" />
          </mxGeometry>
        </mxCell>
        <mxCell id="ME_5Kme3eVwSuaZXo6tZ-32" style="edgeStyle=orthogonalEdgeStyle;rounded=0;orthogonalLoop=1;jettySize=auto;html=1;exitX=1;exitY=0.5;exitDx=0;exitDy=0;entryX=0;entryY=0.5;entryDx=0;entryDy=0;" edge="1" parent="UEzPUAAOIrF-is8g5C7q-2" source="ME_5Kme3eVwSuaZXo6tZ-19" target="ME_5Kme3eVwSuaZXo6tZ-31">
          <mxGeometry relative="1" as="geometry" />
        </mxCell>
        <mxCell id="ME_5Kme3eVwSuaZXo6tZ-33" style="edgeStyle=orthogonalEdgeStyle;rounded=0;orthogonalLoop=1;jettySize=auto;html=1;exitX=1;exitY=0;exitDx=0;exitDy=0;entryX=0.25;entryY=1;entryDx=0;entryDy=0;" edge="1" parent="UEzPUAAOIrF-is8g5C7q-2" source="ME_5Kme3eVwSuaZXo6tZ-19" target="ME_5Kme3eVwSuaZXo6tZ-27">
          <mxGeometry relative="1" as="geometry">
            <Array as="points">
              <mxPoint x="185" y="495" />
              <mxPoint x="185" y="435" />
              <mxPoint x="215" y="435" />
            </Array>
          </mxGeometry>
        </mxCell>
        <mxCell id="ME_5Kme3eVwSuaZXo6tZ-19" value="SQL database" style="rounded=1;whiteSpace=wrap;html=1;" vertex="1" parent="UEzPUAAOIrF-is8g5C7q-2">
          <mxGeometry x="44.5" y="495" width="120" height="60" as="geometry" />
        </mxCell>
        <mxCell id="ME_5Kme3eVwSuaZXo6tZ-21" style="edgeStyle=orthogonalEdgeStyle;rounded=0;orthogonalLoop=1;jettySize=auto;html=1;exitX=0.5;exitY=0;exitDx=0;exitDy=0;" edge="1" parent="UEzPUAAOIrF-is8g5C7q-2" source="ME_5Kme3eVwSuaZXo6tZ-20" target="UEzPUAAOIrF-is8g5C7q-18">
          <mxGeometry relative="1" as="geometry">
            <Array as="points">
              <mxPoint x="105" y="299" />
              <mxPoint x="465" y="299" />
            </Array>
          </mxGeometry>
        </mxCell>
        <mxCell id="ME_5Kme3eVwSuaZXo6tZ-20" value="SSH&lt;div&gt;Permissions: wwwdata&lt;/div&gt;" style="rounded=1;whiteSpace=wrap;html=1;" vertex="1" parent="UEzPUAAOIrF-is8g5C7q-2">
          <mxGeometry x="44.5" y="375" width="120" height="60" as="geometry" />
        </mxCell>
        <mxCell id="ME_5Kme3eVwSuaZXo6tZ-26" value="nmap scan returns the airdeskr.ctf site when queried with ssh credentials" style="text;html=1;align=center;verticalAlign=middle;whiteSpace=wrap;rounded=0;" vertex="1" parent="UEzPUAAOIrF-is8g5C7q-2">
          <mxGeometry x="530" y="240" width="114.5" height="75" as="geometry" />
        </mxCell>
        <mxCell id="ME_5Kme3eVwSuaZXo6tZ-27" value="Web Form that feeds information into the SQL database" style="rounded=1;whiteSpace=wrap;html=1;" vertex="1" parent="UEzPUAAOIrF-is8g5C7q-2">
          <mxGeometry x="184.5" y="315" width="120" height="60" as="geometry" />
        </mxCell>
        <mxCell id="ME_5Kme3eVwSuaZXo6tZ-29" value="PHP" style="rounded=1;whiteSpace=wrap;html=1;" vertex="1" parent="UEzPUAAOIrF-is8g5C7q-2">
          <mxGeometry x="334.5" y="495" width="120" height="60" as="geometry" />
        </mxCell>
        <mxCell id="ME_5Kme3eVwSuaZXo6tZ-31" value="mockaroo to feed database entries in. cronjob to prefill the database" style="rounded=1;whiteSpace=wrap;html=1;" vertex="1" parent="UEzPUAAOIrF-is8g5C7q-2">
          <mxGeometry x="194.5" y="495" width="120" height="60" as="geometry" />
        </mxCell>
        <mxCell id="ME_5Kme3eVwSuaZXo6tZ-34" value="hidden geo location in the DB from a test user from when the db was created" style="text;html=1;align=center;verticalAlign=middle;whiteSpace=wrap;rounded=0;" vertex="1" parent="UEzPUAAOIrF-is8g5C7q-2">
          <mxGeometry x="201.75" y="565" width="105.5" height="75" as="geometry" />
        </mxCell>
        <mxCell id="UEzPUAAOIrF-is8g5C7q-22" value="6" style="rounded=1;whiteSpace=wrap;html=1;fillColor=#007CBD;strokeColor=none;fontColor=#FFFFFF;fontStyle=1;fontSize=22;" parent="UEzPUAAOIrF-is8g5C7q-2" vertex="1">
          <mxGeometry x="234.5" y="455" width="40" height="38" as="geometry" />
        </mxCell>
        <mxCell id="ME_5Kme3eVwSuaZXo6tZ-25" value="airdeskr.com on a .ctf domain that needs to be added to the hostfile so that people can browse to the actual domain" style="text;html=1;align=center;verticalAlign=middle;whiteSpace=wrap;rounded=0;" vertex="1" parent="UEzPUAAOIrF-is8g5C7q-2">
          <mxGeometry x="201.75" y="255" width="234" height="30" as="geometry" />
        </mxCell>
        <mxCell id="UEzPUAAOIrF-is8g5C7q-23" value="7" style="rounded=1;whiteSpace=wrap;html=1;fillColor=#007CBD;strokeColor=none;fontColor=#FFFFFF;fontStyle=1;fontSize=22;" parent="UEzPUAAOIrF-is8g5C7q-2" vertex="1">
          <mxGeometry x="604.5" y="45" width="40" height="38" as="geometry" />
        </mxCell>
        <mxCell id="UEzPUAAOIrF-is8g5C7q-24" value="8" style="rounded=1;whiteSpace=wrap;html=1;fillColor=#007CBD;strokeColor=none;fontColor=#FFFFFF;fontStyle=1;fontSize=22;" parent="UEzPUAAOIrF-is8g5C7q-2" vertex="1">
          <mxGeometry x="604.5" y="135" width="40" height="38" as="geometry" />
        </mxCell>
        <mxCell id="-QjtrjUzRDEMRZ5MF8oH-9" value="1" style="rounded=1;whiteSpace=wrap;html=1;fillColor=#007CBD;strokeColor=none;fontColor=#FFFFFF;fontStyle=1;fontSize=22;" parent="1" vertex="1">
          <mxGeometry x="80" y="230" width="40" height="38" as="geometry" />
        </mxCell>
        <mxCell id="-QjtrjUzRDEMRZ5MF8oH-47" value="A Very Black Friday" style="text;html=1;resizable=0;points=[];autosize=1;align=left;verticalAlign=top;spacingTop=-4;fontSize=30;fontStyle=1" parent="1" vertex="1">
          <mxGeometry x="12" y="65.5" width="280" height="40" as="geometry" />
        </mxCell>
        <mxCell id="-QjtrjUzRDEMRZ5MF8oH-48" value="SIP x E2Cyber CTF (November 15, 2024)" style="text;html=1;resizable=0;points=[];autosize=1;align=left;verticalAlign=top;spacingTop=-4;fontSize=16" parent="1" vertex="1">
          <mxGeometry x="12" y="115.5" width="320" height="30" as="geometry" />
        </mxCell>
        <mxCell id="SCVMTBWpLvtzJIhz15lM-1" value="" style="line;strokeWidth=2;html=1;fontSize=14;" parent="1" vertex="1">
          <mxGeometry x="8" y="140.5" width="1060" height="10" as="geometry" />
        </mxCell>
        <mxCell id="7OVz4w7n9kzEPWy-4BBC-3" value="" style="rounded=0;whiteSpace=wrap;html=1;fillColor=#EAEDED;fontSize=22;fontColor=#FFFFFF;strokeColor=none;labelBackgroundColor=none;" parent="1" vertex="1">
          <mxGeometry x="1106.5" y="52" width="539" height="969" as="geometry" />
        </mxCell>
        <mxCell id="7OVz4w7n9kzEPWy-4BBC-4" value="1" style="rounded=1;whiteSpace=wrap;html=1;fillColor=#007CBD;strokeColor=none;fontColor=#FFFFFF;fontStyle=1;fontSize=22;labelBackgroundColor=none;" parent="1" vertex="1">
          <mxGeometry x="1124.5" y="64" width="40" height="38" as="geometry" />
        </mxCell>
        <mxCell id="7OVz4w7n9kzEPWy-4BBC-5" value="2" style="rounded=1;whiteSpace=wrap;html=1;fillColor=#007CBD;strokeColor=none;fontColor=#FFFFFF;fontStyle=1;fontSize=22;labelBackgroundColor=none;" parent="1" vertex="1">
          <mxGeometry x="1123" y="186" width="40" height="38" as="geometry" />
        </mxCell>
        <mxCell id="7OVz4w7n9kzEPWy-4BBC-6" value="3" style="rounded=1;whiteSpace=wrap;html=1;fillColor=#007CBD;strokeColor=none;fontColor=#FFFFFF;fontStyle=1;fontSize=22;labelBackgroundColor=none;" parent="1" vertex="1">
          <mxGeometry x="1123" y="306" width="40" height="38" as="geometry" />
        </mxCell>
        <mxCell id="7OVz4w7n9kzEPWy-4BBC-7" value="4" style="rounded=1;whiteSpace=wrap;html=1;fillColor=#007CBD;strokeColor=none;fontColor=#FFFFFF;fontStyle=1;fontSize=22;labelBackgroundColor=none;" parent="1" vertex="1">
          <mxGeometry x="1123" y="420" width="40" height="38" as="geometry" />
        </mxCell>
        <mxCell id="7OVz4w7n9kzEPWy-4BBC-8" value="5" style="rounded=1;whiteSpace=wrap;html=1;fillColor=#007CBD;strokeColor=none;fontColor=#FFFFFF;fontStyle=1;fontSize=22;labelBackgroundColor=none;" parent="1" vertex="1">
          <mxGeometry x="1124.5" y="537" width="40" height="38" as="geometry" />
        </mxCell>
        <mxCell id="7OVz4w7n9kzEPWy-4BBC-9" value="6" style="rounded=1;whiteSpace=wrap;html=1;fillColor=#007CBD;strokeColor=none;fontColor=#FFFFFF;fontStyle=1;fontSize=22;labelBackgroundColor=none;" parent="1" vertex="1">
          <mxGeometry x="1125.5" y="652" width="40" height="38" as="geometry" />
        </mxCell>
        <mxCell id="7OVz4w7n9kzEPWy-4BBC-10" value="7" style="rounded=1;whiteSpace=wrap;html=1;fillColor=#007CBD;strokeColor=none;fontColor=#FFFFFF;fontStyle=1;fontSize=22;labelBackgroundColor=none;" parent="1" vertex="1">
          <mxGeometry x="1125" y="768" width="40" height="38" as="geometry" />
        </mxCell>
        <mxCell id="7OVz4w7n9kzEPWy-4BBC-11" value="8" style="rounded=1;whiteSpace=wrap;html=1;fillColor=#007CBD;strokeColor=none;fontColor=#FFFFFF;fontStyle=1;fontSize=22;labelBackgroundColor=none;" parent="1" vertex="1">
          <mxGeometry x="1125.5" y="886" width="40" height="38" as="geometry" />
        </mxCell>
        <mxCell id="7OVz4w7n9kzEPWy-4BBC-13" value="&lt;span&gt;Hosting all of the domains&lt;/span&gt;" style="text;html=1;align=left;verticalAlign=top;spacingTop=-4;fontSize=14;labelBackgroundColor=none;whiteSpace=wrap;" parent="1" vertex="1">
          <mxGeometry x="1176" y="63.5" width="449" height="118" as="geometry" />
        </mxCell>
        <mxCell id="7OVz4w7n9kzEPWy-4BBC-14" value="&lt;span&gt;Canva is hosting highenergydigital.com - dummy website&lt;/span&gt;" style="text;html=1;align=left;verticalAlign=top;spacingTop=-4;fontSize=14;labelBackgroundColor=none;whiteSpace=wrap;" parent="1" vertex="1">
          <mxGeometry x="1175" y="186.5" width="450" height="115" as="geometry" />
        </mxCell>
        <mxCell id="7OVz4w7n9kzEPWy-4BBC-15" value="&lt;span&gt;Github is hosting perfectmonday.au as well as the code of the amplify site - dummy site&lt;/span&gt;" style="text;html=1;align=left;verticalAlign=top;spacingTop=-4;fontSize=14;labelBackgroundColor=none;whiteSpace=wrap;" parent="1" vertex="1">
          <mxGeometry x="1175" y="304.5" width="450" height="117" as="geometry" />
        </mxCell>
        <mxCell id="7OVz4w7n9kzEPWy-4BBC-16" value="&lt;span&gt;Amplify webapp (leeandson.com) where the code is hosted on github - dummy site&lt;/span&gt;" style="text;html=1;align=left;verticalAlign=top;spacingTop=-4;fontSize=14;labelBackgroundColor=none;whiteSpace=wrap;" parent="1" vertex="1">
          <mxGeometry x="1175" y="420.5" width="450" height="121" as="geometry" />
        </mxCell>
        <mxCell id="7OVz4w7n9kzEPWy-4BBC-17" value="&lt;span&gt;EC2 instance webapp hosting airdeskr.com&lt;/span&gt;" style="text;html=1;align=left;verticalAlign=top;spacingTop=-4;fontSize=14;labelBackgroundColor=none;whiteSpace=wrap;" parent="1" vertex="1">
          <mxGeometry x="1176" y="537.5" width="449" height="114" as="geometry" />
        </mxCell>
        <mxCell id="7OVz4w7n9kzEPWy-4BBC-18" value="&lt;span&gt;DB TABLES:&lt;/span&gt;&lt;div&gt;&lt;span&gt;first name&lt;/span&gt;&lt;/div&gt;&lt;div&gt;&lt;span&gt;last name&lt;/span&gt;&lt;/div&gt;&lt;div&gt;IP address&lt;/div&gt;&lt;div&gt;geolocation&lt;/div&gt;&lt;div&gt;&lt;br&gt;&lt;/div&gt;" style="text;html=1;align=left;verticalAlign=top;spacingTop=-4;fontSize=14;labelBackgroundColor=none;whiteSpace=wrap;" parent="1" vertex="1">
          <mxGeometry x="1176" y="653.5" width="450" height="118" as="geometry" />
        </mxCell>
        <mxCell id="7OVz4w7n9kzEPWy-4BBC-19" value="&lt;span&gt;LAMP Stack -&amp;nbsp;&lt;/span&gt;https://hub.docker.com/r/mattrayner/lamp" style="text;html=1;align=left;verticalAlign=top;spacingTop=-4;fontSize=14;labelBackgroundColor=none;whiteSpace=wrap;" parent="1" vertex="1">
          <mxGeometry x="1176" y="768.5" width="449" height="113" as="geometry" />
        </mxCell>
        <mxCell id="7OVz4w7n9kzEPWy-4BBC-20" value="&lt;span&gt;text&lt;/span&gt;" style="text;html=1;align=left;verticalAlign=top;spacingTop=-4;fontSize=14;labelBackgroundColor=none;whiteSpace=wrap;" parent="1" vertex="1">
          <mxGeometry x="1176" y="887.5" width="449" height="124" as="geometry" />
        </mxCell>
        <mxCell id="UEzPUAAOIrF-is8g5C7q-10" value="2" style="rounded=1;whiteSpace=wrap;html=1;fillColor=#007CBD;strokeColor=none;fontColor=#FFFFFF;fontStyle=1;fontSize=22;" parent="1" vertex="1">
          <mxGeometry x="70" y="490" width="40" height="38" as="geometry" />
        </mxCell>
        <mxCell id="UEzPUAAOIrF-is8g5C7q-19" value="3" style="rounded=1;whiteSpace=wrap;html=1;fillColor=#007CBD;strokeColor=none;fontColor=#FFFFFF;fontStyle=1;fontSize=22;" parent="1" vertex="1">
          <mxGeometry x="60" y="730" width="40" height="38" as="geometry" />
        </mxCell>
        <mxCell id="ME_5Kme3eVwSuaZXo6tZ-13" style="edgeStyle=orthogonalEdgeStyle;rounded=0;orthogonalLoop=1;jettySize=auto;html=1;exitX=0;exitY=0.75;exitDx=0;exitDy=0;entryX=0.5;entryY=0;entryDx=0;entryDy=0;" edge="1" parent="1" source="ME_5Kme3eVwSuaZXo6tZ-9" target="ME_5Kme3eVwSuaZXo6tZ-3">
          <mxGeometry relative="1" as="geometry">
            <Array as="points">
              <mxPoint x="60" y="398" />
              <mxPoint x="60" y="470" />
              <mxPoint x="220" y="470" />
            </Array>
          </mxGeometry>
        </mxCell>
        <mxCell id="ME_5Kme3eVwSuaZXo6tZ-14" style="edgeStyle=orthogonalEdgeStyle;rounded=0;orthogonalLoop=1;jettySize=auto;html=1;exitX=0;exitY=0.5;exitDx=0;exitDy=0;entryX=0;entryY=0.5;entryDx=0;entryDy=0;" edge="1" parent="1" source="ME_5Kme3eVwSuaZXo6tZ-9" target="ME_5Kme3eVwSuaZXo6tZ-11">
          <mxGeometry relative="1" as="geometry" />
        </mxCell>
        <mxCell id="ME_5Kme3eVwSuaZXo6tZ-15" style="edgeStyle=orthogonalEdgeStyle;rounded=0;orthogonalLoop=1;jettySize=auto;html=1;exitX=1;exitY=0.75;exitDx=0;exitDy=0;entryX=0;entryY=0.5;entryDx=0;entryDy=0;" edge="1" parent="1" source="ME_5Kme3eVwSuaZXo6tZ-9" target="ME_5Kme3eVwSuaZXo6tZ-10">
          <mxGeometry relative="1" as="geometry">
            <Array as="points">
              <mxPoint x="420" y="398" />
              <mxPoint x="420" y="308" />
            </Array>
          </mxGeometry>
        </mxCell>
        <mxCell id="ME_5Kme3eVwSuaZXo6tZ-16" style="edgeStyle=orthogonalEdgeStyle;rounded=0;orthogonalLoop=1;jettySize=auto;html=1;exitX=1;exitY=1;exitDx=0;exitDy=0;" edge="1" parent="1" source="ME_5Kme3eVwSuaZXo6tZ-9" target="UEzPUAAOIrF-is8g5C7q-18">
          <mxGeometry relative="1" as="geometry">
            <Array as="points">
              <mxPoint x="377" y="200" />
              <mxPoint x="740" y="200" />
              <mxPoint x="740" y="304" />
            </Array>
          </mxGeometry>
        </mxCell>
        <mxCell id="ME_5Kme3eVwSuaZXo6tZ-9" value="" style="shape=image;verticalLabelPosition=bottom;labelBackgroundColor=default;verticalAlign=top;aspect=fixed;imageAspect=0;image=https://1000logos.net/wp-content/uploads/2017/08/Squarespace-Logo.png;" vertex="1" parent="1">
          <mxGeometry x="50" y="240" width="326.85" height="210" as="geometry" />
        </mxCell>
        <mxCell id="ME_5Kme3eVwSuaZXo6tZ-3" value="highenergydigital.com" style="shape=image;verticalLabelPosition=bottom;labelBackgroundColor=default;verticalAlign=top;aspect=fixed;imageAspect=0;image=https://oregoncoast.edu/wp-content/uploads/2024/02/canva-logo.png;" vertex="1" parent="1">
          <mxGeometry x="120" y="490" width="199.5" height="199.5" as="geometry" />
        </mxCell>
        <mxCell id="ME_5Kme3eVwSuaZXo6tZ-12" value="" style="whiteSpace=wrap;html=1;aspect=fixed;fillColor=#000000;" vertex="1" parent="1">
          <mxGeometry x="110" y="743.5" width="200" height="200" as="geometry" />
        </mxCell>
        <mxCell id="ME_5Kme3eVwSuaZXo6tZ-17" style="edgeStyle=orthogonalEdgeStyle;rounded=0;orthogonalLoop=1;jettySize=auto;html=1;exitX=1;exitY=0.25;exitDx=0;exitDy=0;entryX=0;entryY=0.75;entryDx=0;entryDy=0;" edge="1" parent="1" source="ME_5Kme3eVwSuaZXo6tZ-11" target="ME_5Kme3eVwSuaZXo6tZ-10">
          <mxGeometry relative="1" as="geometry">
            <Array as="points">
              <mxPoint x="460" y="792" />
              <mxPoint x="460" y="356" />
            </Array>
          </mxGeometry>
        </mxCell>
        <mxCell id="ME_5Kme3eVwSuaZXo6tZ-11" value="perfectmonday.au" style="shape=image;verticalLabelPosition=bottom;labelBackgroundColor=default;verticalAlign=top;aspect=fixed;imageAspect=0;image=https://cdn-icons-png.flaticon.com/512/25/25231.png;" vertex="1" parent="1">
          <mxGeometry x="110" y="740" width="207" height="207" as="geometry" />
        </mxCell>
        <UserObject label="&lt;a style=&quot;font-size: 26px;&quot; href=&quot;https://blackfridaycybermonday.ctfd.io/&quot;&gt;A Very Black Friday (ctfd.io)&lt;/a&gt;" link="&lt;a href=&quot;https://blackfridaycybermonday.ctfd.io/&quot;&gt;A Very Black Friday (ctfd.io)&lt;/a&gt;" id="ME_5Kme3eVwSuaZXo6tZ-24">
          <mxCell style="text;whiteSpace=wrap;html=1;fontSize=26;" vertex="1" parent="1">
            <mxGeometry x="728" y="80" width="340" height="42" as="geometry" />
          </mxCell>
        </UserObject>
      </root>
    </mxGraphModel>
  </diagram>
</mxfile>
